PathFileType	4	(X/Y/Z)	Run_400 02
DataRate	CameraRate	NumFrames	NumMarkers	Units	OrigDataRate	OrigDataStartFrame	OrigNumFrames
100	100	4	42	mm	100	35	128
Frame#	Time	LASI			RASI			LPSI			RPSI			RTH1			RTH2			RTH3			LTH1			LTH2			LTH3			RTB1			RTB2			RTB3			LTB1			LTB2			LTB3			RCAL			RTOE			RMT5			LCAL			LTOE			LMT5			LACR			RACR			CLAV			C7			RUA1			RUA2			RUA3			RLEL			RMEL			LUA1			LUA2			LUA3			LLEL			LMEL			RFAsuperior			RFAradius			RFAulna			LFAsuperior			LFAradius			LFAulna			
		X1	Y1	Z1	X2	Y2	Z2	X3	Y3	Z3	X4	Y4	Z4	X5	Y5	Z5	X6	Y6	Z6	X7	Y7	Z7	X8	Y8	Z8	X9	Y9	Z9	X10	Y10	Z10	X11	Y11	Z11	X12	Y12	Z12	X13	Y13	Z13	X14	Y14	Z14	X15	Y15	Z15	X16	Y16	Z16	X17	Y17	Z17	X18	Y18	Z18	X19	Y19	Z19	X20	Y20	Z20	X21	Y21	Z21	X22	Y22	Z22	X23	Y23	Z23	X24	Y24	Z24	X25	Y25	Z25	X26	Y26	Z26	X27	Y27	Z27	X28	Y28	Z28	X29	Y29	Z29	X30	Y30	Z30	X31	Y31	Z31	X32	Y32	Z32	X33	Y33	Z33	X34	Y34	Z34	X35	Y35	Z35	X36	Y36	Z36	X37	Y37	Z37	X38	Y38	Z38	X39	Y39	Z39	X40	Y40	Z40	X41	Y41	Z41	X42	Y42	Z42	

27	1.03	937.247271	996.331448	-430.360468	905.9013169999999	980.133827	-191.487694	765.515542	1052.134275	-376.684111	756.055877	1044.507451	-280.32303	743.593381	770.157688	-150.88044	759.142603	670.630145	-159.077615	661.0899920000001	615.048961	-184.977642	979.128696	860.7823529999999	-477.021309	1083.755274	824.450424	-450.389252	1109.194794	707.618971	-431.218746	580.309044	409.558376	-241.004599	496.012188	377.58287	-201.458417	455.400644	268.746933	-260.394954	1171.394652	533.681383	-357.048212	1101.373001	468.297796	-424.627297	1089.725476	355.967657	-356.631543	327.409996	267.330097	-295.069232	434.566492	77.002484	-314.505682	361.537732	80.222329	-224.98306	954.015896	265.510651	-354.988899	1156.608364	189.102003	-325.492724	1115.97443	166.995729	-426.887266	897.422218	1476.341558	-475.154715	943.873778	1477.336791	-189.061366	1004.82322	1399.631326	-327.289878	870.94173	1502.507269	-321.091653	945.986538	1379.265355	-81.139186	893.320076	1311.067663	-60.516444	961.121597	1262.712947	-27.409123	961.566829	1195.133374	11.17252	919.38614	1154.659589	-41.703663	783.515774	1422.046786	-537.618027	735.9683659999999	1383.856978	-475.104658	714.204327	1354.830645	-559.02514	642.7983	1299.861186	-571.876381	633.308947	1279.219532	-500.733775	1062.697324	1213.96559	-45.200737	1131.786358	1232.291414	-162.515016	1149.174829	1170.553188	-135.990178	746.586197	1242.178639	-583.766166	844.807811	1147.093497	-530.9345029999999	795.421793	1126.156544	-580.274343	
28	1.04	938.440571	999.6455989999999	-430.483986	908.235152	983.689402	-192.044966	767.477931	1056.801272	-375.778387	758.709619	1050.114126	-278.882001	738.53479	778.597037	-150.70718	751.794813	678.275903	-157.161136	652.997118	625.234972	-184.339054	979.10752	863.188361	-476.819966	1083.438849	823.9507630000001	-451.162511	1106.670034	706.255375	-430.236806	568.079448	420.496024	-239.521253	483.335116	390.676085	-199.423826	439.292128	282.398326	-257.71213	1177.833941	532.250755	-358.48186	1114.527614	458.904763	-424.568001	1115.653771	346.882255	-354.862183	318.990595	289.542755	-292.265503	402.459634	86.335973	-310.522341	328.592663	98.121161	-225.819859	990.767366	240.989513	-351.189218	1201.419579	191.349954	-319.985306	1163.550298	159.80558	-420.18359	898.286248	1480.489988	-475.156418	945.277615	1482.027025	-191.527238	1006.097798	1404.294662	-328.991259	871.732158	1505.943531	-321.997037	949.555569	1386.17055	-82.629113	896.958766	1317.907871	-60.793808	964.511839	1269.990757	-27.186873	966.287282	1202.054987	11.404187	924.3966390000001	1160.488109	-41.156614	784.027204	1429.408092	-537.107398	737.781922	1391.250659	-473.44528	713.278507	1362.780837	-556.708353	640.5962	1308.424324	-568.229877	632.48256	1287.99276	-496.863587	1065.957829	1224.503943	-46.250649	1132.422689	1245.884472	-164.334235	1152.137672	1184.375171	-139.197558	743.443148	1250.430098	-582.163796	842.02124	1154.913806	-530.877715	791.860294	1133.386505	-578.91139	
29	1.05	939.328264	1001.393777	-430.383037	909.763583	986.802222	-192.447895	768.929684	1060.343358	-375.217999	760.9061819999999	1054.941191	-277.655225	735.859424	785.1619459999999	-150.177979	748.18664	684.206225	-155.757905	649.163857	632.329519	-183.247996	978.254562	863.141394	-477.270102	1082.40046	820.753568	-452.149717	1102.676575	701.654339	-430.313275	558.443672	428.959184	-238.111635	472.843224	402.18979	-198.15552	423.931234	295.873425	-256.467862	1181.869871	528.1235	-360.747202	1125.599874	447.740194	-424.98925	1139.322453	337.436096	-353.20728	311.495822	311.468979	-291.310649	369.564704	98.66134	-307.381567	296.48152	119.602202	-226.35604	1026.813857	217.82391	-347.406118	1242.029862	195.185095	-315.357583	1208.368428	155.430903	-413.641165	899.486265	1483.873464	-475.160387	946.861248	1485.769552	-193.575604	1007.613686	1407.919055	-330.473898	872.452341	1508.481606	-322.571503	952.354819	1391.681789	-84.031745	899.627573	1323.2035	-61.621171	966.702013	1276.050049	-26.612936	969.459654	1207.860654	11.874091	927.988731	1165.35789	-40.492089	784.9698529999999	1435.402955	-536.697163	739.861046	1397.078009	-472.169392	712.9114060000001	1369.2354	-554.8389969999999	639.326923	1315.244929	-565.2947	632.325036	1294.888831	-493.749134	1067.979308	1233.334031	-46.662298	1132.147461	1257.237397	-165.347139	1153.928657	1196.009248	-141.348985	741.366433	1257.180584	-580.602755	840.507179	1161.657124	-530.646346	789.896137	1139.465818	-577.816471	
30	1.06	940.19835	1002.029236	-430.190006	910.746312	989.583626	-192.643803	770.000452	1062.870782	-375.071102	762.638566	1058.828972	-277.042375	735.8520150000001	789.041556	-149.343261	748.182302	687.727518	-155.19015	649.029828	636.142771	-181.685786	976.623872	860.738985	-478.459575	1080.396141	814.898493	-453.204398	1096.734578	693.8446300000001	-431.028164	550.835951	435.375813	-236.567326	463.727274	413.048238	-197.376021	409.123271	309.825373	-255.882075	1183.273416	521.499073	-362.901309	1134.333337	435.369457	-425.543762	1160.125798	327.914632	-351.418816	302.681434	333.40181	-291.317123	338.196258	114.934874	-305.702474	266.866482	143.785748	-226.312635	1060.835134	196.687197	-343.60696	1277.187827	200.480038	-311.532288	1248.652865	154.103857	-407.732214	900.975275	1486.398017	-475.418408	948.670806	1488.586867	-195.027108	1009.255105	1410.601684	-331.728364	873.331532	1510.424475	-322.872189	954.19346	1395.665934	-85.20354	900.977216	1327.060291	-62.468469	967.642544	1280.886944	-25.823583	970.921623	1212.462117	12.488436	929.974113	1169.235178	-39.838393	786.3111699999999	1439.834282	-536.3688079999999	742.0863440000001	1401.293293	-471.206869	713.16544	1374.147904	-553.544949	638.988668	1320.222079	-563.144804	632.8088749999999	1299.881257	-491.455578	1068.740306	1240.267216	-46.433322	1130.984096	1266.004821	-165.63769	1154.582147	1205.232521	-142.378194	740.44817	1262.29924	-579.524683	840.551877	1167.135287	-530.598599	789.494091	1144.288855	-577.051269	
